<?xml version="1.0" encoding="UTF-8" standalone="no"?>
<svg
   viewBox="0 0 1441.07 1381.55"
   version="1.1"
   id="svg4"
   sodipodi:docname="bi-logo-inverse.svg"
   inkscape:version="1.4.1-rc (d9e8dc1fe0, 2025-03-10)"
   xmlns:inkscape="http://www.inkscape.org/namespaces/inkscape"
   xmlns:sodipodi="http://sodipodi.sourceforge.net/DTD/sodipodi-0.dtd"
   xmlns="http://www.w3.org/2000/svg"
   xmlns:svg="http://www.w3.org/2000/svg">
  <defs
     id="defs4" />
  <sodipodi:namedview
     id="namedview4"
     pagecolor="#ffffff"
     bordercolor="#000000"
     borderopacity="0.25"
     inkscape:showpageshadow="2"
     inkscape:pageopacity="0.0"
     inkscape:pagecheckerboard="0"
     inkscape:deskcolor="#d1d1d1"
     inkscape:zoom="0.51463934"
     inkscape:cx="720.8932"
     inkscape:cy="731.58029"
     inkscape:window-width="1648"
     inkscape:window-height="961"
     inkscape:window-x="0"
     inkscape:window-y="0"
     inkscape:window-maximized="1"
     inkscape:current-layer="Layer_1" />
  <g
     fill="#ff7300"
     id="Layer_2"
     data-name="Layer 2">
    <g
       id="g2">
      <path
         d="m 0,1369.98 v -349.85 c 0,-3.52 2.85,-6.37 6.37,-6.37 h 90.55 c 2.22,0 4.28,1.15 5.44,3.04 l 137.23,223.98 c 2.6,4.25 -0.45,9.7 -5.44,9.7 h -30.24 c -4.94,0 -8.01,-5.39 -5.48,-9.63 l 133.31,-223.98 c 1.15,-1.93 3.23,-3.11 5.48,-3.11 h 90.51 c 3.51,0 6.36,2.84 6.37,6.36 l 1,349.85 c 0.01,3.53 -2.85,6.39 -6.37,6.39 h -98.64 c -3.51,0 -6.36,-2.83 -6.37,-6.34 L 322.75,1188 c -0.02,-3.53 2.84,-6.41 6.37,-6.41 v 0 c 4.94,0 8,5.38 5.48,9.63 l -88.77,149.39 c -1.15,1.93 -3.23,3.12 -5.48,3.12 h -46.7 c -2.21,0 -4.26,-1.14 -5.42,-3.02 L 95.64,1191.32 c -2.63,-4.25 0.42,-9.73 5.42,-9.73 h 3.93 c 3.52,0 6.37,2.85 6.37,6.37 v 182.02 c 0,3.52 -2.85,6.37 -6.37,6.37 H 6.37 c -3.52,0 -6.37,-2.85 -6.37,-6.37 z"
         id="path1"
         style="display:none" />
    </g>
  </g>
  <g
     fill="#ff7300"
     id="Layer_1"
     data-name="Layer 1">
    <path
       d="M1303,646.94l-201.64,.48-100.54,180.9L749.98,216.81l-225.68,502.34-331.67-.71c1.34,27.67,4.69,54.8,9.83,81.28l374.34,.8,169.77-377.86,243.2,592.85,159.46-286.92,154.26-.37c.8-12.39,1.36-24.86,1.36-37.44-.03-14.77-.74-29.35-1.85-43.83Z"
       id="path3"
       style="fill:#c5c5c5;fill-opacity:1" />
    <path
       id="path4"
       d="M 748.39062 0 C 365.84062 0 55.710938 309.2793 55.710938 690.7793 C 55.710938 792.52696 77.773437 889.13549 117.38867 976.10742 A 413.88208 262.31964 0 0 1 253.07422 947.2832 C 214.00607 870.37659 191.96094 783.17739 191.96094 690.7793 C 191.96094 380.1593 441.10062 128.38086 748.39062 128.38086 C 1055.6806 128.38086 1304.8203 380.1593 1304.8203 690.7793 C 1304.8203 1001.3993 1055.7106 1253.1797 748.39062 1253.1797 C 742.24063 1253.1797 736.11953 1253.0691 730.01953 1252.8691 C 711.95953 1300.3591 681.4807 1341.8593 642.4707 1373.5293 C 677.0007 1378.8093 712.38062 1381.5605 748.39062 1381.5605 C 1130.9406 1381.5605 1441.0703 1072.2793 1441.0703 690.7793 C 1441.0703 309.2793 1130.9306 -1.5158245e-13 748.39062 0 z "
       style="fill:#c5c5c5;fill-opacity:1" />
    <path
       d="m 494.17,1356.82 v -323.54 c 0,-10.79 8.74,-19.53 19.53,-19.53 h 83.18 c 10.79,0 19.53,8.74 19.53,19.53 v 323.54 c 0,10.79 -8.74,19.53 -19.53,19.53 H 513.7 c -10.79,0 -19.53,-8.74 -19.53,-19.53 z"
       id="path2"
       style="display:inline;fill:#c5c5c5;fill-opacity:1" />
    <path
       style="font-weight:bold;font-size:555.445px;font-family:'Noto Sans Medefaidrin';-inkscape-font-specification:'Noto Sans Medefaidrin Bold';stroke-width:1.22469;fill:#c5c5c5;fill-opacity:1"
       d="m 208.34845,1243.5706 q 24.68042,0 37.42745,-10.8485 12.74703,-10.8486 12.74703,-32.0032 0,-20.8835 -12.74703,-31.732 -12.74703,-11.1197 -37.42745,-11.1197 H 150.58 v 85.7034 z m 3.52578,177.1023 q 31.46075,0 47.19113,-13.2894 16.00159,-13.2895 16.00159,-40.1396 0,-26.3077 -15.73038,-39.3259 -15.73038,-13.2895 -47.46234,-13.2895 H 150.58 v 106.0444 z m 97.09439,-145.6416 q 33.63046,9.7637 52.07297,36.0714 18.44251,26.3077 18.44251,64.5488 0,58.5821 -39.59716,87.3307 -39.59715,28.7486 -120.41874,28.7486 H 46.16285 v -404.9215 h 156.76134 q 84.34736,0 122.04602,25.494 37.96987,25.4941 37.96987,81.6352 0,29.5623 -13.83188,50.4457 -13.83188,20.6122 -40.13958,30.6471 z"
       id="text4"
       transform="scale(1.0788534,0.92690999)"
       aria-label="B" />
  </g>
</svg>
