<?xml version="1.0" encoding="UTF-8"?>
<!--
 ~ Copyright (c) 2025, WSO2 LLC. (https://www.wso2.com) All Rights Reserved.
 ~
 ~ WSO2 LLC. licenses this file to you under the Apache License,
 ~ Version 2.0 (the "License"); you may not use this file except
 ~ in compliance with the License.
 ~ You may obtain a copy of the License at
 ~
 ~     http://www.apache.org/licenses/LICENSE-2.0
 ~
 ~ Unless required by applicable law or agreed to in writing,
 ~ software distributed under the License is distributed on an
 ~ "AS IS" BASIS, WITHOUT WARRANTIES OR CONDITIONS OF ANY
 ~ KIND, either express or implied. See the License for the
 ~ specific language governing permissions and limitations
 ~ under the License.
-->
<svg width="16px" height="16px" viewBox="0 0 16 16" version="1.1" xmlns="http://www.w3.org/2000/svg" xmlns:xlink="http://www.w3.org/1999/xlink">
    <title>Icon/Bug Dark</title>
    <g id="VSC" stroke="none" stroke-width="1" fill="none" fill-rule="evenodd">
        <g id="VSC-icons" transform="translate(-966.000000, -453.000000)" fill="#000000" fill-rule="nonzero">
            <g id="black-Bug" transform="translate(966.000000, 453.000000)">
                <path d="M6.5,0 C8.18237221,0 9.66750118,0.942764468 10.6690874,2.42379442 L11.6876525,1.83559456 C11.9032834,1.6745901 12.2179296,1.70722007 12.3904344,1.90847564 C12.543772,2.08736948 12.5331862,2.33928195 12.3774963,2.50613251 L12.3123475,2.56440544 L11.1444167,3.23949433 C11.6258756,4.20488544 11.9260048,5.32953247 11.9880123,6.53319663 L12.5,6.53333333 C12.7761424,6.53333333 13,6.75719096 13,7.03333333 C13,7.27879322 12.8231248,7.4829417 12.5898756,7.52527766 L12.5,7.53333333 L11.9843133,7.53375439 C11.9097142,8.79837304 11.5721367,9.97368584 11.0379337,10.965946 L12.3123475,11.7022612 L12.3774963,11.7605342 C12.5331862,11.9273847 12.543772,12.1792972 12.3904344,12.358191 C12.2179296,12.5594466 11.9032834,12.5920766 11.6876525,12.4310721 L11.6876525,12.4310721 L10.5360385,11.7658696 C9.53828402,13.1372534 8.10939305,14 6.5,14 C4.89060695,14 3.46171598,13.1372534 2.46396148,11.7658696 L1.31234752,12.4310721 C1.09671656,12.5920766 0.782070369,12.5594466 0.609565595,12.358191 C0.456228018,12.1792972 0.466813769,11.9273847 0.622503735,11.7605342 L0.687652476,11.7022612 L1.96206632,10.965946 C1.42786331,9.97368584 1.09028583,8.79837304 1.01568673,7.53375439 L0.5,7.53333333 C0.223857625,7.53333333 0,7.30947571 0,7.03333333 C0,6.78787344 0.176875161,6.58372496 0.410124368,6.541389 L0.5,6.53333333 L1.01198766,6.53319663 C1.07399516,5.32953247 1.37412437,4.20488544 1.85558328,3.23949433 L0.687652476,2.56440544 L0.622503735,2.50613251 C0.466813769,2.33928195 0.456228018,2.08736948 0.609565595,1.90847564 C0.782070369,1.70722007 1.09671656,1.6745901 1.31234752,1.83559456 L1.31234752,1.83559456 L2.33091258,2.42379442 C3.33249882,0.942764468 4.81762779,0 6.5,0 Z M10.9011399,5.73326462 L2.09886006,5.73326462 C2.03414569,6.14123004 2,6.56490016 2,7 C2,10.3777488 4.05784532,13.0666667 6.5,13.0666667 C8.94215468,13.0666667 11,10.3777488 11,7 C11,6.56490016 10.9658543,6.14123004 10.9011399,5.73326462 Z M6.5,0.933333333 C4.63896713,0.933333333 3.0011078,2.49482365 2.32701174,4.73270595 L10.6729883,4.73270595 C9.9988922,2.49482365 8.36103287,0.933333333 6.5,0.933333333 Z" id="Combined-Shape"></path>
            </g>
        </g>
    </g>
</svg>
