<?xml version="1.0" encoding="UTF-8"?>
<!--
 ~ Copyright (c) 2025, WSO2 LLC. (https://www.wso2.com) All Rights Reserved.
 ~
 ~ WSO2 LLC. licenses this file to you under the Apache License,
 ~ Version 2.0 (the "License"); you may not use this file except
 ~ in compliance with the License.
 ~ You may obtain a copy of the License at
 ~
 ~     http://www.apache.org/licenses/LICENSE-2.0
 ~
 ~ Unless required by applicable law or agreed to in writing,
 ~ software distributed under the License is distributed on an
 ~ "AS IS" BASIS, WITHOUT WARRANTIES OR CONDITIONS OF ANY
 ~ KIND, either express or implied. See the License for the
 ~ specific language governing permissions and limitations
 ~ under the License.
-->
<svg width="14px" height="14px" viewBox="0 0 14 14" version="1.1" xmlns="http://www.w3.org/2000/svg" xmlns:xlink="http://www.w3.org/1999/xlink">
    <title>92998634-206B-4E9C-9A7F-471160622846</title>
    <g id="Home" stroke="none" stroke-width="1" fill="none" fill-rule="evenodd">
        <g id="VSC-icons" transform="translate(-821.000000, -133.000000)" fill="#C5C5C5" fill-rule="nonzero">
            <path d="M833,137 L833,146.5 L832.5,147 L823.5,147 L823,146.5 L823,137 L833,137 Z M832,138 L824,138 L824,146 L832,146 L832,138 Z M827,140 L827,144 L826,144 L826,140 L827,140 Z M830,140 L830,144 L829,144 L829,140 L830,140 Z M831,133 L831,135 L835,135 L835,136 L821,136 L821,135 L825,135 L825,133 L831,133 Z M830,134 L826,134 L826,135 L830,135 L830,134 Z" id="Delete"></path>
        </g>
    </g>
</svg>
