<?xml version="1.0" encoding="UTF-8"?>
<!--
 ~ Copyright (c) 2025, WSO2 LLC. (https://www.wso2.com) All Rights Reserved.
 ~
 ~ WSO2 LLC. licenses this file to you under the Apache License,
 ~ Version 2.0 (the "License"); you may not use this file except
 ~ in compliance with the License.
 ~ You may obtain a copy of the License at
 ~
 ~     http://www.apache.org/licenses/LICENSE-2.0
 ~
 ~ Unless required by applicable law or agreed to in writing,
 ~ software distributed under the License is distributed on an
 ~ "AS IS" BASIS, WITHOUT WARRANTIES OR CONDITIONS OF ANY
 ~ KIND, either express or implied. See the License for the
 ~ specific language governing permissions and limitations
 ~ under the License.
-->
<svg width="14px" height="14px" viewBox="0 0 14 14" version="1.1" xmlns="http://www.w3.org/2000/svg" xmlns:xlink="http://www.w3.org/1999/xlink">
    <title>C2286F50-1C96-4E0C-85D0-CD70C85AC96E</title>
    <g id="Home" stroke="none" stroke-width="1" fill="none" fill-rule="evenodd">
        <g id="VSC-icons" transform="translate(-675.000000, -290.000000)" fill="#000000" fill-rule="nonzero">
            <path d="M688.5,290 L689,290.5 L689,294.5 L688.5,295 L682.5,295 L682.5,299 L688.5,299 L689,299.5 L689,303.5 L688.5,304 L675.5,304 L675,303.5 L675,299.5 L675.497457,299 L681.5,299 L681.5,295 L675.5,295 L675,294.5 L675,290.5 L675.5,290 L688.5,290 Z M688,300 L676,300 L676,303 L688,303 L688,300 Z M688,291 L676,291 L676,294 L688,294 L688,291 Z" id="diagram-view"></path>
        </g>
    </g>
</svg>
