<?xml version="1.0" encoding="UTF-8"?>
<!--
 ~ Copyright (c) 2025, WSO2 LLC. (https://www.wso2.com) All Rights Reserved.
 ~
 ~ WSO2 LLC. licenses this file to you under the Apache License,
 ~ Version 2.0 (the "License"); you may not use this file except
 ~ in compliance with the License.
 ~ You may obtain a copy of the License at
 ~
 ~     http://www.apache.org/licenses/LICENSE-2.0
 ~
 ~ Unless required by applicable law or agreed to in writing,
 ~ software distributed under the License is distributed on an
 ~ "AS IS" BASIS, WITHOUT WARRANTIES OR CONDITIONS OF ANY
 ~ KIND, either express or implied. See the License for the
 ~ specific language governing permissions and limitations
 ~ under the License.
-->
<svg width="14px" height="14px" viewBox="0 0 14 14" version="1.1" xmlns="http://www.w3.org/2000/svg" xmlns:xlink="http://www.w3.org/1999/xlink">
    <title>30444A0F-5044-410A-9B4E-F75DEA1505DB</title>
    <g id="VSC" stroke="none" stroke-width="1" fill="none" fill-rule="evenodd">
        <g id="VSC-icons" transform="translate(-389.000000, -757.000000)" fill="#C5C5C5">
            <g id="new-file" transform="translate(389.000000, 757.000000)">
                <path d="M4,7 L3,7 L3,4 L0,4 L0,3 L3,3 L3,0 L4,0 L4,3 L7,3 L7,4 L4,4 L4,7 Z M10.5,1.09998 L13.9,4.59998 L14,5 L14,13.5 L13.5,14 L3.5,14 L3,13.5 L3,8 L4,8 L4,13 L13,13 L13,6 L9,6 L9,2 L5,2 L5,1 L10.2,1 L10.5,1.09998 Z M10,2 L10,5 L12.9,5 L10,2 Z" id="Shape"></path>
            </g>
        </g>
    </g>
</svg>
