<?xml version="1.0" encoding="UTF-8"?>
<!--
 ~ Copyright (c) 2025, WSO2 LLC. (https://www.wso2.com) All Rights Reserved.
 ~
 ~ WSO2 LLC. licenses this file to you under the Apache License,
 ~ Version 2.0 (the "License"); you may not use this file except
 ~ in compliance with the License.
 ~ You may obtain a copy of the License at
 ~
 ~     http://www.apache.org/licenses/LICENSE-2.0
 ~
 ~ Unless required by applicable law or agreed to in writing,
 ~ software distributed under the License is distributed on an
 ~ "AS IS" BASIS, WITHOUT WARRANTIES OR CONDITIONS OF ANY
 ~ KIND, either express or implied. See the License for the
 ~ specific language governing permissions and limitations
 ~ under the License.
-->
<svg width="15px" height="14px" viewBox="0 0 15 14" version="1.1" xmlns="http://www.w3.org/2000/svg" xmlns:xlink="http://www.w3.org/1999/xlink">
    <title>A03652D4-7A30-40CB-8664-61A0E6E672AD</title>
    <g id="Home" stroke="none" stroke-width="1" fill="none" fill-rule="evenodd">
        <g id="VSC-icons" transform="translate(-100.000000, -133.000000)" fill="#000000">
            <g id="new-folder" transform="translate(100.000000, 133.000000)">
                <path d="M7,3 L4,3 L4,0 L3,0 L3,3 L0,3 L0,4 L3,4 L3,7 L4,7 L4,4 L7,4 L7,3 Z M5.5,7 L5,7 L5,6 L5.3,6 L6.1,5.1 L6.5,5 L14,5 L14,4 L8,4 L8,3 L14.5,3 L15,3.5 L15,13.5 L14.5,14 L1.5,14 L1,13.5 L1,6.5 L1,6 L1,5 L2,5 L2,6 L2,6.5 L2,13 L14,13 L14,7 L14,6 L6.7,6 L5.9,6.9 L5.5,7 Z" id="Shape"></path>
            </g>
        </g>
    </g>
</svg>
