<?xml version="1.0" encoding="UTF-8"?>
<!--
 ~ Copyright (c) 2025, WSO2 LLC. (https://www.wso2.com) All Rights Reserved.
 ~
 ~ WSO2 LLC. licenses this file to you under the Apache License,
 ~ Version 2.0 (the "License"); you may not use this file except
 ~ in compliance with the License.
 ~ You may obtain a copy of the License at
 ~
 ~     http://www.apache.org/licenses/LICENSE-2.0
 ~
 ~ Unless required by applicable law or agreed to in writing,
 ~ software distributed under the License is distributed on an
 ~ "AS IS" BASIS, WITHOUT WARRANTIES OR CONDITIONS OF ANY
 ~ KIND, either express or implied. See the License for the
 ~ specific language governing permissions and limitations
 ~ under the License.
-->
<svg width="13px" height="13px" viewBox="0 0 13 13" version="1.1" xmlns="http://www.w3.org/2000/svg" xmlns:xlink="http://www.w3.org/1999/xlink">
    <title>D4F978B7-F4E0-4748-9EA2-06135B539420</title>
    <g id="Home" stroke="none" stroke-width="1" fill="none" fill-rule="evenodd">
        <g id="VSC-icons" transform="translate(-1112.000000, -133.000000)" fill="#000000" fill-rule="nonzero">
            <path d="M1112,134.89187 L1119.37841,140 L1112,145.10813 L1112,134.89187 Z M1120.69205,132.999267 L1121.245,134.178 L1122.43133,133.724226 L1124.21356,135.506458 L1123.789,136.679 L1124.99927,137.220135 L1124.99927,139.69312 L1123.82,140.245 L1124.27406,141.431576 L1122.49199,143.213654 L1121.32,142.789 L1120.77807,143.999267 L1118.30509,143.999267 L1117.55712,142.399511 L1118.46299,141.975966 L1118.941,142.999 L1120.13,142.999 L1120.78774,141.532953 L1122.233,142.057 L1123.108,141.182 L1122.55478,139.734403 L1123.999,139.057 L1123.999,137.868 L1122.53296,137.212724 L1123.057,135.764 L1122.183,134.89 L1120.73468,135.445597 L1120.056,133.999 L1118.868,133.999 L1118.21289,135.467134 L1116.762,134.942 L1115.85967,135.845267 L1115.02467,135.267267 L1116.50548,133.785951 L1117.678,134.21 L1118.21999,132.999267 L1120.69205,132.999267 Z M1113,136.8 L1113,143.199 L1117.621,140 L1113,136.8 Z M1119.5,136.5 C1120.60457,136.5 1121.5,137.395431 1121.5,138.5 C1121.5,138.800316 1121.4334,139.091727 1121.30759,139.356766 L1121.22506,139.512485 L1120.38667,139.019267 L1120.41667,139 L1120.37867,138.973267 L1120.42209,138.888019 C1120.47318,138.766835 1120.5,138.635714 1120.5,138.5 C1120.5,137.947715 1120.05228,137.5 1119.5,137.5 C1119.2301,137.5 1118.97837,137.606745 1118.79162,137.794173 L1118.74667,137.844267 L1117.92129,137.271954 C1117.97127,137.207792 1118.02533,137.146459 1118.08324,137.088335 C1118.45578,136.714464 1118.96153,136.5 1119.5,136.5 Z" id="Combined-Shape"></path>
        </g>
    </g>
</svg>
